<?xml version="1.0" encoding="UTF-8"?>
<svg width="1200pt" height="1200pt" version="1.1" viewBox="0 0 1200 1200" xmlns="http://www.w3.org/2000/svg">
  <path
    d="m1105.6 238.63c-6.9805 0-12.637 5.6562-12.637 12.637v652.55l-22.102 3.9297c-35.473 6.3047-73.91 11.535-114.6 17.043-40.887 5.5469-83.559 11.352-125.88 18.699 82.004-25.945 158.48-42.086 210.55-51.332l32.535-5.7812c6.0352-1.0664 10.434-6.3203 10.434-12.441l0.003906-663.15c0-6.9805-5.6562-12.637-12.637-12.637s-12.637 5.6562-12.637 12.637v652.57l-22.102 3.9297c-65.328 11.598-168.49 33.883-273.6 72.562 81.797-40.973 175-72.477 276.44-93.062 5.9023-1.1992 10.125-6.3672 10.125-12.379v-664.77c0-3.7852-1.7031-7.3828-4.6406-9.7852-2.9375-2.3984-6.7969-3.3555-10.508-2.6094-172.82 35.059-322.71 101.38-434.31 192-111.59-90.637-261.49-156.94-434.38-192.01-3.7109-0.74609-7.5781 0.20703-10.508 2.6094-2.9375 2.3984-4.6406 6-4.6406 9.7852v664.79c0 6.0117 4.2383 11.203 10.125 12.391 101.43 20.582 194.64 52.09 276.43 93.062-105.12-38.668-208.27-60.969-273.6-72.562l-22.102-3.9297 0.003906-652.58c0-6.9805-5.6562-12.637-12.637-12.637-6.9805 0-12.637 5.6562-12.637 12.637v663.17c0 6.1211 4.3945 11.375 10.434 12.441l32.535 5.7812c52.066 9.2461 128.56 25.383 210.55 51.332-42.32-7.3477-84.98-13.141-125.88-18.699-40.691-5.5352-79.125-10.738-114.6-17.043l-22.078-3.9375v-652.57c0-6.9805-5.6562-12.637-12.637-12.637-6.9805 0-12.637 5.6562-12.637 12.637v663.15c0 6.1211 4.3945 11.375 10.434 12.441l32.535 5.7812c35.988 6.3906 74.668 11.645 115.62 17.191 122.24 16.594 260.79 35.398 353.09 91.359 0.050781 0.035156 0.10938 0.050781 0.16016 0.085938 0.0625 0.035156 0.10937 0.074218 0.18359 0.10937 0.26953 0.14844 0.53906 0.26953 0.79688 0.39063 0.19531 0.097656 0.37891 0.20703 0.58594 0.28125 0.13281 0.050781 0.26953 0.097656 0.40234 0.14844 0.16016 0.0625 0.33203 0.10938 0.48828 0.17188 0.23438 0.074219 0.45312 0.17188 0.6875 0.23438 0.24609 0.0625 0.47656 0.097656 0.73438 0.14844 0.18359 0.035157 0.34375 0.074219 0.51562 0.097657 0.12109 0.011719 0.24609 0.050781 0.36719 0.0625 0.39062 0.050781 0.76953 0.0625 1.1758 0.074219 0.13281 0 0.29297 0.023437 0.42969 0.023437l0.046875-0.007813c0.16016 0 0.29297-0.023437 0.44141-0.023437 0.39062-0.011719 0.78516-0.023437 1.1758-0.074219 0.12109-0.011718 0.24609-0.035156 0.36719-0.0625 0.18359-0.023437 0.34375-0.0625 0.51562-0.097656 0.24609-0.050781 0.48828-0.085938 0.73438-0.14844s0.46484-0.14844 0.69922-0.23437c0.16016-0.050782 0.33203-0.097657 0.48828-0.17188 0.12109-0.050781 0.26953-0.097656 0.39062-0.14844 0.20703-0.074219 0.39062-0.18359 0.60156-0.28125 0.26953-0.12109 0.53906-0.24609 0.78516-0.37891 0.0625-0.035157 0.10938-0.074219 0.18359-0.10938 0.050782-0.035156 0.10938-0.050782 0.16016-0.085938 92.312-55.961 230.87-74.766 353.09-91.359 40.961-5.5586 79.629-10.801 115.62-17.191l32.535-5.7812c6.0352-1.0664 10.434-6.3203 10.434-12.441l-0.007812-663.15c0.027344-6.9922-5.6328-12.648-12.648-12.637zm-560.77 593.71c-2.4375 3.6719-6.4531 5.6562-10.555 5.6562-2.3984 0-4.8242-0.6875-6.9805-2.1055-86.473-57.32-193.74-103.11-310.2-132.43-6.7695-1.7031-10.887-8.5703-9.1719-15.344 1.7031-6.7695 8.582-10.887 15.344-9.1719 119.2 30.012 229.15 76.996 317.99 135.87 5.8125 3.8438 7.418 11.695 3.5742 17.523zm0-121.82c-2.4375 3.6719-6.4531 5.6562-10.555 5.6562-2.3984 0-4.8242-0.6875-6.9805-2.1055-86.473-57.32-193.74-103.11-310.2-132.42-6.7695-1.7031-10.887-8.5703-9.1719-15.344 1.7031-6.7695 8.582-10.887 15.344-9.1719 119.2 30.012 229.16 76.984 317.99 135.87 5.8125 3.8438 7.418 11.695 3.5742 17.512zm0-121.82c-2.4375 3.6719-6.4531 5.6562-10.555 5.6562-2.3984 0-4.8242-0.6875-6.9805-2.1055-86.473-57.32-193.74-103.11-310.2-132.42-6.7695-1.7031-10.887-8.5703-9.1719-15.344 1.7031-6.7695 8.582-10.887 15.344-9.1719 119.2 30 229.16 76.984 318 135.86 5.8008 3.8672 7.4062 11.707 3.5625 17.523zm-0.011719-121.81c-2.4375 3.6719-6.4531 5.6562-10.555 5.6562-2.3984 0-4.8242-0.6875-6.9805-2.1055-86.473-57.32-193.74-103.11-310.2-132.43-6.7695-1.7031-10.887-8.5703-9.1484-15.332 1.7031-6.7695 8.582-10.887 15.344-9.1719 119.2 30.012 229.16 76.996 317.99 135.87 5.8164 3.8438 7.4062 11.68 3.5508 17.512zm438.2-7.0547c-116.46 29.312-223.73 75.109-310.2 132.42-2.1562 1.4219-4.5781 2.1055-6.9805 2.1055-4.1016 0-8.1172-1.9961-10.531-5.668-3.8711-5.8164-2.2773-13.664 3.5508-17.512 88.824-58.875 198.79-105.87 317.99-135.87 6.7578-1.7031 13.641 2.3984 15.344 9.1719 1.7148 6.7852-2.3906 13.641-9.1719 15.355zm0 121.8c-116.46 29.312-223.73 75.109-310.2 132.43-2.1562 1.4219-4.5781 2.1055-6.9805 2.1055-4.1016 0-8.1172-1.9844-10.531-5.668-3.8711-5.8164-2.2773-13.664 3.5508-17.512 88.824-58.887 198.79-105.87 317.99-135.87 6.7578-1.7031 13.641 2.3984 15.344 9.1719 1.7148 6.7852-2.3906 13.641-9.1719 15.344zm-324.17-132.27c88.836-58.875 198.8-105.86 317.99-135.87 6.7578-1.7148 13.641 2.3984 15.344 9.1719 1.7031 6.7695-2.3984 13.641-9.1719 15.344-116.46 29.312-223.73 75.098-310.2 132.43-2.1445 1.4219-4.5781 2.1055-6.9805 2.1055-4.0781-0.011719-8.0938-2.0078-10.531-5.668-3.8594-5.8203-2.2656-13.656 3.5508-17.512zm7.0156 388.63c-4.1016 0-8.1172-1.9844-10.555-5.6562-3.8711-5.8164-2.2773-13.664 3.5508-17.512 88.824-58.887 198.79-105.87 317.99-135.87 6.7578-1.7031 13.641 2.3984 15.367 9.1602 1.7031 6.7695-2.3984 13.641-9.1719 15.344-116.46 29.312-223.73 75.109-310.2 132.42-2.168 1.4297-4.5781 2.1172-6.9805 2.1172z"
    fill="#9b9b9b" fill-rule="evenodd" />
</svg>